<?xml version="1.0" encoding="UTF-8"?>
<svg version="1.1" xmlns="http://www.w3.org/2000/svg" width="256" height="256">
<path d="M0 0 C4.5294991 2.57649645 7.75960969 6.41590849 9.296875 11.421875 C10.51119225 17.68775202 9.85203058 22.01038572 6.953125 27.578125 C5.43246235 29.81218495 3.64320184 31.58040497 1.6875 33.4375 C12.0449792 44.69240103 12.0449792 44.69240103 23.6875 54.4375 C27.13187884 54.4375 27.46304295 54.07542704 29.91015625 51.875 C30.52689209 51.3286792 31.14362793 50.7823584 31.77905273 50.21948242 C32.42946533 49.63142822 33.07987793 49.04337402 33.75 48.4375 C35.09503773 47.24460775 36.44139573 46.05320254 37.7890625 44.86328125 C38.44938477 44.27885254 39.10970703 43.69442383 39.79003906 43.09228516 C43.64212312 39.73286342 47.65556741 36.57766397 51.6875 33.4375 C51.27757813 33.00179687 50.86765625 32.56609375 50.4453125 32.1171875 C46.09163222 27.30522509 44.04164207 23.62477866 43.3125 17.0625 C44.07091496 9.73115538 47.3872959 5.15726594 53.00390625 0.56640625 C57.63983714 -2.54214138 63.34997483 -2.20416969 68.6875 -1.5625 C74.36277695 0.6174077 77.78463237 4.09622357 80.6875 9.4375 C82.52902373 14.96207118 82.5044855 20.34755661 80.0625 25.6875 C77.13753095 30.83176375 73.5807351 33.80247739 67.9375 35.6953125 C63.24182444 37.40375973 60.07057267 40.14268422 56.4375 43.5 C55.14024918 44.6624928 53.84205807 45.82393709 52.54296875 46.984375 C51.90149902 47.56251953 51.2600293 48.14066406 50.59912109 48.73632812 C47.70665015 51.31036868 44.73511403 53.78460755 41.75 56.25 C40.77160156 57.06082031 39.79320313 57.87164062 38.78515625 58.70703125 C38.09292969 59.27808594 37.40070313 59.84914062 36.6875 60.4375 C37.31978516 61.35982422 37.31978516 61.35982422 37.96484375 62.30078125 C38.51269531 63.10902344 39.06054688 63.91726562 39.625 64.75 C40.17027344 65.55050781 40.71554688 66.35101563 41.27734375 67.17578125 C43.35053096 70.50092084 43.88518812 73.27578051 44 77.125 C44.05607422 78.33736328 44.05607422 78.33736328 44.11328125 79.57421875 C43.50891702 83.63842961 41.65957973 86.86947895 39.6875 90.4375 C41.45691533 93.02180719 43.22828313 95.60477024 45 98.1875 C45.49951172 98.91710937 45.99902344 99.64671875 46.51367188 100.3984375 C47.00029297 101.10742188 47.48691406 101.81640625 47.98828125 102.546875 C48.43341064 103.19624023 48.87854004 103.84560547 49.3371582 104.51464844 C50.30347279 105.89065525 51.31567949 107.23487897 52.35620117 108.55566406 C53.6875 110.4375 53.6875 110.4375 53.6875 112.4375 C54.47125 112.086875 55.255 111.73625 56.0625 111.375 C62.13679962 109.80406044 67.48198972 110.29390208 73.0625 113.1875 C77.73941696 117.19628597 81.15357025 121.22269094 81.9453125 127.47265625 C82.24577401 133.31162488 80.89142315 137.56145637 77.6875 142.4375 C77.0275 143.0975 76.3675 143.7575 75.6875 144.4375 C80.22787424 149.08655341 84.8614556 153.52553495 89.7890625 157.76171875 C92.55152294 160.20018691 95.11491059 162.80059585 97.6875 165.4375 C101.25514285 163.92373919 103.52456287 161.83236871 106.234375 159.0859375 C107.07871094 158.23515625 107.92304688 157.384375 108.79296875 156.5078125 C109.66566406 155.61835938 110.53835937 154.72890625 111.4375 153.8125 C112.32566406 152.9153125 113.21382812 152.018125 114.12890625 151.09375 C116.31966969 148.87942996 118.50562763 146.66057565 120.6875 144.4375 C120.37578857 143.81512451 120.06407715 143.19274902 119.74291992 142.55151367 C116.45064294 135.95705927 114.72090845 130.78912075 116.6875 123.4375 C118.36472792 119.51384917 120.60405663 116.37998596 123.6875 113.4375 C117.32379895 107.54153713 110.87936095 101.84663884 104.1171875 96.40625 C102.19951751 94.85238236 100.34586609 93.26133535 98.5 91.625 C96.12236069 89.77572498 94.3208676 88.76010661 91.625 87.5625 C87.29756752 85.52313527 84.85214609 82.67388892 82.6875 78.4375 C80.96640529 72.83290953 80.87935954 67.59079379 83.3125 62.25 C85.91778023 57.64552904 88.89669402 54.41615512 94.015625 52.62109375 C99.58149064 51.26377375 104.42807428 50.96055054 109.6875 53.4375 C114.93938585 56.75947599 117.91266589 60.38218363 119.6875 66.4375 C120.48291553 72.10623605 119.46217305 76.36654581 116.6875 81.4375 C114 84.375 114 84.375 111.6875 86.4375 C113.21046545 90.30148092 115.51368071 92.15670742 118.75 94.6875 C123.88831101 98.77510098 128.82298007 103.02940416 133.6875 107.4375 C137.16721308 105.92458127 139.59741336 103.87986671 142.375 101.3125 C143.24253906 100.51714844 144.11007813 99.72179687 145.00390625 98.90234375 C145.88949219 98.08894531 146.77507812 97.27554688 147.6875 96.4375 C149.39268121 94.91313329 151.1007807 93.39202137 152.8125 91.875 C153.55757812 91.21371094 154.30265625 90.55242187 155.0703125 89.87109375 C155.60398438 89.39800781 156.13765625 88.92492187 156.6875 88.4375 C156.12559757 86.07346005 155.48710068 83.90703122 154.625 81.625 C152.77379092 75.33088913 153.50294892 71.01930388 156.421875 65.33203125 C157.93266381 63.07051097 159.71757863 61.30395911 161.6875 59.4375 C157.1983885 54.84093636 152.64284818 50.40094103 147.75 46.234375 C146.29920711 44.97042665 144.88509069 43.66374816 143.5 42.328125 C139.03203833 38.07735592 135.69041718 35.87502563 129.765625 34.26953125 C125.16875299 32.4290543 122.70580445 28.1963895 120.3125 24.0625 C118.75191756 17.50805374 119.1549878 12.07081674 122.48046875 6.16015625 C125.07556982 2.45646831 128.57655607 0.16881151 132.6875 -1.5625 C138.83556878 -2.2776077 144.53246336 -2.27892176 149.6875 1.4375 C154.40128735 6.03770211 157.38091429 10.12637432 158 16.8125 C157.38521808 23.94397029 154.15681012 28.22208573 149.6875 33.4375 C153.46557468 36.94488945 157.25253788 40.44215333 161.05029297 43.92822266 C162.43853336 45.20798736 163.81616009 46.49925044 165.19140625 47.79296875 C165.87074219 48.41816406 166.55007812 49.04335937 167.25 49.6875 C168.11818359 50.49960938 168.11818359 50.49960938 169.00390625 51.328125 C170.90814021 52.80431418 170.90814021 52.80431418 174.6875 52.4375 C177.01947522 50.8397739 179.14514963 49.23442088 181.3125 47.4375 C181.92625488 46.94145264 182.54000977 46.44540527 183.17236328 45.93432617 C184.41951577 44.92546135 185.66351881 43.91269042 186.90429688 42.89599609 C189.43826442 40.82344378 192.00090748 38.78829576 194.5625 36.75 C195.93802331 35.64648532 197.31324984 34.54259978 198.6875 33.4375 C198.26597656 32.82261719 197.84445313 32.20773438 197.41015625 31.57421875 C196.86230469 30.76597656 196.31445312 29.95773438 195.75 29.125 C195.20472656 28.32449219 194.65945312 27.52398437 194.09765625 26.69921875 C191.44327016 22.44190698 191.19183978 18.33101815 191.6875 13.4375 C193.75213563 7.02626304 196.83405536 3.36191616 202.375 -0.375 C208.39534053 -2.53323528 214.20070894 -2.56529963 220.0625 0.125 C224.46478895 2.63297067 227.07483571 5.59950712 228.6875 10.4375 C229.59985706 22.47762187 229.59985706 22.47762187 227 28.0625 C223.45922814 31.69896839 220.89897292 34.03367569 216.0078125 35.6640625 C211.16970372 37.43484116 207.68915548 40.29990893 203.8125 43.625 C202.41677328 44.78919033 201.02094 45.95325292 199.625 47.1171875 C198.9546875 47.68276367 198.284375 48.24833984 197.59375 48.83105469 C195.02172403 50.99856633 192.4248773 53.13124051 189.8125 55.25 C189.05195313 55.87519531 188.29140625 56.50039062 187.5078125 57.14453125 C185.6875 58.4375 185.6875 58.4375 183.6875 58.4375 C183.6875 59.0975 183.6875 59.7575 183.6875 60.4375 C184.6775 60.7675 185.6675 61.0975 186.6875 61.4375 C191.11095436 67.42217355 192.53012455 72.11497395 191.6875 79.4375 C189.84724208 85.33684112 186.74205227 89.00040445 181.6875 92.4375 C178.7886226 93.82105512 176.65694095 94.54016649 173.4375 94.19921875 C169.08919858 93.74400595 166.67680345 93.68281988 163.1015625 96.41015625 C161.39123764 98.15468761 159.72194931 99.94029958 158.09375 101.76171875 C155.33479135 104.8297166 152.32087127 107.3227139 149.0859375 109.8671875 C147.24412974 111.58490629 147.24412974 111.58490629 147.6875 115.4375 C149.30876675 117.47447617 150.97609531 119.47564584 152.6875 121.4375 C154.61320993 127.21462979 154.58937619 133.2474294 152 138.8125 C149.12318956 143.83678866 145.23294298 146.79907367 139.6875 148.4375 C138.37394531 148.40140625 137.06039062 148.3653125 135.70703125 148.328125 C128.5070848 149.08681808 124.29694965 154.98539222 119.625 160 C118.65619608 161.00898846 117.68550655 162.01616998 116.71289062 163.02148438 C114.35196342 165.47637883 112.0117497 167.94793641 109.6875 170.4375 C110.09742188 170.96859375 110.50734375 171.4996875 110.9296875 172.046875 C111.46851563 172.75328125 112.00734375 173.4596875 112.5625 174.1875 C113.09617188 174.88359375 113.62984375 175.5796875 114.1796875 176.296875 C117.93622019 181.62998359 118.47029077 186.00122031 117.6875 192.4375 C115.7301194 198.63763531 112.44337517 202.20493043 106.8671875 205.51953125 C101.73206975 207.68217045 95.56662581 207.04023847 90.375 205.375 C85.10231274 201.57376035 80.8672625 196.99173613 79.6875 190.4375 C79.60626721 184.11294682 81.01858031 179.57398756 84.6875 174.4375 C86.9375 173 86.9375 173 88.6875 172.4375 C88.01847656 171.76976562 87.34945312 171.10203125 86.66015625 170.4140625 C84.45267682 168.20736062 82.25450077 165.99165251 80.05859375 163.7734375 C78.74744154 162.45307961 77.43624273 161.132768 76.125 159.8125 C75.46564453 159.14476562 74.80628906 158.47703125 74.12695312 157.7890625 C73.16499023 156.82226562 73.16499023 156.82226562 72.18359375 155.8359375 C71.60794678 155.25505371 71.0322998 154.67416992 70.43920898 154.07568359 C66.98626476 150.84651903 64.66881823 149.19980834 59.9375 148.6875 C54.04613249 147.62583555 50.46968558 145.02498347 46.6875 140.4375 C43.01243039 134.63665483 43.4845099 128.98711276 44.6875 122.4375 C44.92162598 121.82624268 45.15575195 121.21498535 45.39697266 120.58520508 C45.81940723 117.46238415 44.59547275 116.28193354 42.7578125 113.77734375 C42.12746094 112.90142578 41.49710937 112.02550781 40.84765625 111.12304688 C40.17605469 110.21619141 39.50445312 109.30933594 38.8125 108.375 C37.49955019 106.57383681 36.1895163 104.7705434 34.8828125 102.96484375 C34.29516113 102.16812256 33.70750977 101.37140137 33.10205078 100.55053711 C31.6875 98.4375 31.6875 98.4375 30.6875 95.4375 C29.9140625 95.49550781 29.140625 95.55351563 28.34375 95.61328125 C22.07193344 95.88495647 17.45290206 95.79859363 12.30859375 91.98046875 C7.78857584 87.67828302 6.02084861 82.88436545 5.58984375 76.703125 C5.88796466 69.78671987 9.33145054 65.48623274 13.6875 60.4375 C4.25294032 50.80949573 4.25294032 50.80949573 -5.7578125 41.79296875 C-7.3125 40.4375 -7.3125 40.4375 -9.25 38.1875 C-11.48668479 36.28970685 -12.89845555 35.89999239 -15.6875 35.125 C-20.80848624 33.60391498 -23.37521948 30.79096934 -26.3125 26.4375 C-28.81559419 21.43131161 -28.1688696 13.36873081 -26.62890625 8.09765625 C-21.51152184 -1.60626357 -9.59847042 -4.27004197 0 0 Z M-17.3125 12.4375 C-18.24855213 15.93209462 -18.6867539 18.28355048 -17.5625 21.75 C-16.24603552 23.72622927 -16.24603552 23.72622927 -13.3125 25.4375 C-7.76573793 26.03790738 -7.76573793 26.03790738 -2.875 23.875 C-0.77682204 20.60184238 -0.3125 18.32332276 -0.3125 14.4375 C-2.07891172 11.63560554 -3.34299822 9.92225089 -6.3125 8.4375 C-11.36594865 7.87600571 -13.8846945 8.6179453 -17.3125 12.4375 Z M55.6875 11.4375 C53.75886161 13.97979606 53.67847709 15.22095018 53.8125 18.4375 C54.85442426 22.00981176 55.58392804 23.36845202 58.6875 25.4375 C63.69421711 26.1527453 65.54186985 26.24898802 69.6875 23.3125 C71.87043783 20.59360238 71.87043783 20.59360238 72.25 17.4375 C71.5366179 13.63279549 70.57131579 12.02553981 67.6875 9.4375 C62.65376213 7.97313989 59.76833426 8.05623733 55.6875 11.4375 Z M132.75 9.9375 C130.0649312 13.19212885 129.6875 15.23986511 129.6875 19.4375 C131.03312399 22.38505732 131.77304544 23.98027272 134.6875 25.4375 C137.70021822 25.78322176 139.77998705 26.01456364 142.6875 25.4375 C145.92759686 23.03274336 145.92759686 23.03274336 147.6875 19.4375 C147.6875 15.9122563 147.36403012 13.63137669 145.625 10.5625 C141.18718874 7.98570636 137.19465458 7.66788915 132.75 9.9375 Z M202.6875 12.4375 C201.75144787 15.93209462 201.3132461 18.28355048 202.4375 21.75 C203.75396448 23.72622927 203.75396448 23.72622927 206.6875 25.4375 C212.23426207 26.03790738 212.23426207 26.03790738 217.125 23.875 C219.22317796 20.60184238 219.6875 18.32332276 219.6875 14.4375 C217.92108828 11.63560554 216.65700178 9.92225089 213.6875 8.4375 C208.63405135 7.87600571 206.1153055 8.6179453 202.6875 12.4375 Z M94.25 64 C92.15182204 67.27315762 91.6875 69.55167724 91.6875 73.4375 C93.45391172 76.23939446 94.71799822 77.95274911 97.6875 79.4375 C101.36136532 79.84570726 103.24036137 79.68591035 106.5 77.875 C109.33948603 74.71100128 109.61234951 72.64592764 109.6875 68.4375 C108.58541992 65.03941974 107.76652124 64.49018083 104.6875 62.4375 C99.14073793 61.83709262 99.14073793 61.83709262 94.25 64 Z M165.6875 69.4375 C163.75886161 71.97979606 163.67847709 73.22095018 163.8125 76.4375 C164.82851387 79.92097614 165.7987908 81.2709681 168.6875 83.4375 C172.12599237 84.79479962 173.39426961 84.55249231 176.875 83.1875 C179.89147879 81.57939118 179.89147879 81.57939118 181.6875 78.4375 C182.17074239 74.73264168 181.95087747 72.91157944 180.125 69.625 C175.39788186 65.38271449 170.51666491 65.43619193 165.6875 69.4375 Z M18.875 70.625 C16.64131265 73.49688374 15.6875 74.82568562 15.6875 78.4375 C17.30905629 81.92384601 18.45203292 83.28052194 21.6875 85.4375 C26.05003463 86.00301375 27.98502588 85.93072651 31.625 83.375 C34.20751338 79.69687488 34.40875695 77.84518137 33.6875 73.4375 C31.07632396 70.13001035 29.06146185 68.62069491 24.875 68.0625 C21.51996151 68.17847984 21.51996151 68.17847984 18.875 70.625 Z M55.6875 123.4375 C53.41305008 126.0910249 53.68871416 127.46056903 53.875 131 C54.46844403 134.28735341 54.46844403 134.28735341 55.8125 136.3125 C58.77056112 138.08733667 61.26550046 138.31950002 64.6875 138.4375 C68.26137602 136.84911066 69.49839572 135.72115642 71.6875 132.4375 C72.2713196 129.5225745 72.2713196 129.5225745 71.6875 126.4375 C69.59256947 123.81883684 67.77527473 122.01764652 64.8125 120.4375 C61.27360764 120.4375 58.76225929 121.78624038 55.6875 123.4375 Z M127.9375 123.75 C126.22418915 126.06296965 125.82171166 127.55194926 125.6875 130.4375 C126.85637016 133.57499359 127.83176182 135.73457221 130.4375 137.875 C133.86703664 138.73238416 136.28611914 138.34858416 139.6875 137.4375 C142.57131579 134.84946019 143.5366179 133.24220451 144.25 129.4375 C143.49210628 125.39540018 141.86543629 123.96540387 138.6875 121.4375 C134.60347463 119.52311311 131.37750224 121.16999832 127.9375 123.75 Z M90.6875 183.4375 C89.46110165 187.04004515 89.36155486 188.68267968 90.875 192.1875 C92.82095682 194.60317053 93.71137583 195.61079884 96.6875 196.4375 C100.89592764 196.36234951 102.96100128 196.08948603 106.125 193.25 C108.00013988 189.87474821 108.39985686 188.2367366 107.6875 184.4375 C105.75057631 181.41716263 105.75057631 181.41716263 102.6875 179.4375 C97.31473352 178.57401967 94.33786823 179.35767668 90.6875 183.4375 Z " fill="#000000" transform="translate(27.3125,25.5625)"/>
</svg>
